# xmcd
#
# Track frame offsets:
#	150
#	26039
#	43004
#	63535
#	83997
#	107811
#	124004
#	138863
#	157962
#	178473
#	194876
#
# Disc length: 3016 seconds
#
# Revision: 0
# Processed by: cddbd v1.5.2PL0 Copyright (c) Steve Scherf et al.
# Submitted via: dBpowerAMP V4.0
#
DISCID=a10bc60b
DTITLE=Van Morrison - Keep it simple
DYEAR=2008
DGENRE=Blues
TTITLE0=How Can a poor boy?
TTITLE1=School of hard knocks
TTITLE2=That's entrainmet
TTITLE3=Don't go to nightclubs anymore
TTITLE4=Lover come back
TTITLE5=Keep it simple
TTITLE6=End of the land
TTITLE7=Song of home
TTITLE8=No thing
TTITLE9=Soul
TTITLE10=Behind the ritual
EXTD=
EXTT0=
EXTT1=
EXTT2=
EXTT3=
EXTT4=
EXTT5=
EXTT6=
EXTT7=
EXTT8=
EXTT9=
EXTT10=
PLAYORDER=
